<svg width="24" height="22" viewBox="0 0 24 22" fill="current" xmlns="http://www.w3.org/2000/svg">
<g clip-path="url(#clip0_4_43)">
<path d="M4.66667 1.33334C2.08833 1.33334 0 3.42168 0 5.96251V15.2583C0 17.8367 2.08833 19.8875 4.66667 19.8875C7.245 19.8875 9.33333 17.7992 9.33333 15.2583V5.96251C9.33333 3.42168 7.24583 1.33334 4.66667 1.33334ZM6.66667 10.6667H2.66667V6.00001C2.66667 4.89584 3.5625 4.00001 4.66667 4.00001C5.77083 4.00001 6.66667 4.89584 6.66667 6.00001V10.6667ZM12.4917 9.42501C12.3458 9.27918 12.0958 9.30001 11.9758 9.46147C10.0904 12.0656 10.2933 15.7156 12.6375 18.0615C14.9867 20.4052 18.6375 20.6136 21.2417 18.7231C21.4083 18.6033 21.4187 18.3586 21.2729 18.2127L12.4917 9.42501ZM22.0625 8.63334C19.7188 6.28959 16.0667 6.08626 13.4625 7.97209C13.2958 8.09189 13.2802 8.34189 13.426 8.48793L22.2135 17.2671C22.3594 17.4129 22.6042 17.3973 22.724 17.2358C24.6167 14.6292 24.4125 10.9833 22.0625 8.63334Z" fill="current"/>
</g>
<defs>
<clipPath id="clip0_4_43">
<rect width="24" height="21.3333" fill="current"/>
</clipPath>
</defs>
</svg>
