<svg width="24" height="24" viewBox="0 0 24 24" fill="current" xmlns="http://www.w3.org/2000/svg">
<path d="M22.5 12C22.5 17.7844 17.7891 22.4953 12.0047 22.4953C9.71531 22.4953 7.54359 21.765 5.71406 20.3925C5.05219 19.8961 4.91859 18.9553 5.41523 18.292C5.91164 17.6302 6.85055 17.498 7.5157 17.9932C8.8207 18.9734 10.3751 19.4904 12.0101 19.4904C16.1391 19.4906 19.5 16.1297 19.5 12C19.5 7.87032 16.1395 4.50938 12.0094 4.50938C10.2534 4.50938 8.58328 5.14173 7.26094 6.22688L9.37594 8.34282C10.1733 9.14063 9.6082 10.5038 8.48063 10.5038H1.64859C1.15219 10.5047 0.75 10.1016 0.75 9.6047V2.76751C0.75 1.64063 2.11266 1.07626 2.90953 1.8736L5.14078 4.10626C7.02656 2.47079 9.44531 1.50517 12.0047 1.50517C17.7891 1.50517 22.5 6.21563 22.5 12Z" fill="current"/>
</svg>
